<svg width="160" height="95" viewBox="0 0 160 95" fill="none" xmlns="http://www.w3.org/2000/svg">
<path d="M116.407 75.1374C115.043 78.2818 113.428 81.176 111.557 83.8372C109.006 87.4648 106.917 89.976 105.308 91.3703C102.813 93.6591 100.139 94.8314 97.2766 94.8979C95.2215 94.8979 92.743 94.3146 89.8582 93.1313C86.9637 91.9535 84.3038 91.3701 81.8717 91.3701C79.3208 91.3701 76.5851 91.9534 73.6591 93.1313C70.7284 94.3145 68.3675 94.9313 66.5625 94.9923C63.8172 95.109 61.081 93.9033 58.3498 91.3701C56.6066 89.8535 54.4262 87.2537 51.814 83.5704C49.0115 79.6373 46.7075 75.0763 44.9023 69.8763C42.9692 64.2597 42 58.8211 42 53.5557C42 47.5241 43.3065 42.3222 45.9237 37.9629C47.9806 34.4613 50.7168 31.6992 54.1412 29.6714C57.5656 27.6436 61.2662 26.6104 65.251 26.5443C67.4314 26.5443 70.2909 27.217 73.8441 28.5392C77.3875 29.8658 79.6625 30.5387 80.66 30.5387C81.4058 30.5387 83.9332 29.7521 88.2177 28.1838C92.2695 26.7294 95.6892 26.1271 98.4904 26.3645C106.082 26.9756 111.785 29.9604 115.577 35.3381C108.788 39.4414 105.43 45.1883 105.497 52.561C105.558 58.3036 107.647 63.0823 111.751 66.8766C113.611 68.6377 115.689 69.9988 118 70.9653C117.499 72.4151 116.97 73.804 116.407 75.1374H116.407ZM98.9974 6.80053C98.9974 11.3016 97.3489 15.5042 94.063 19.394C90.0975 24.0183 85.3012 26.6904 80.0999 26.2688C80.0303 25.7029 79.9953 25.1334 79.9952 24.5632C79.9952 20.2422 81.881 15.6179 85.2298 11.837C86.9019 9.92275 89.0282 8.33088 91.6069 7.06104C94.18 5.81018 96.6138 5.1183 98.9028 5C98.9696 5.6017 98.9976 6.2034 98.9976 6.80035L98.9974 6.80053Z" fill="#E7742E"/>
</svg>
