<svg width="132" height="96" viewBox="0 0 132 96" fill="none" xmlns="http://www.w3.org/2000/svg">
<g clipPath="url(#clip0_646_362)">
<path d="M67.0695 10.4281C66.383 10.1517 65.617 10.1517 64.9305 10.4281L30.6145 24.2196L44.4375 29.7721L79.823 15.553L67.0695 10.4281ZM87.5625 18.6672L52.177 32.8863L66 38.4387L101.385 24.2196L87.5625 18.6672ZM106.25 28.4894L68.875 43.5116V89.283L106.25 74.2608V28.4952V28.4894ZM63.125 89.2887V43.5058L25.75 28.4894V74.2666L63.125 89.2887ZM62.7972 5.06059C64.8533 4.23436 67.1467 4.23436 69.2028 5.06059L110.194 21.5387C110.727 21.7534 111.184 22.1234 111.506 22.6012C111.828 23.079 112 23.6427 112 24.2196V74.2666C111.999 75.4211 111.654 76.5489 111.01 77.5046C110.365 78.4603 109.45 79.2 108.383 79.6283L67.0695 96.2336C66.383 96.51 65.617 96.51 64.9305 96.2336L23.6225 79.6283C22.5544 79.2009 21.6384 78.4616 20.9927 77.5058C20.347 76.5501 20.0012 75.4218 20 74.2666V24.2196C20.0001 23.6427 20.1722 23.079 20.494 22.6012C20.8158 22.1234 21.2725 21.7534 21.8055 21.5387L62.7972 5.06059Z" fill="#E7742E"/>
<path d="M97.7999 46.9076C97.3945 46.6816 96.9486 46.5379 96.4877 46.4847C96.0268 46.4315 95.5599 46.4698 95.1138 46.5974C94.6677 46.7251 94.2511 46.9396 93.8879 47.2287C93.5246 47.5178 93.2217 47.8758 92.9967 48.2822L86.44 60.1031L82.6875 56.3438C82.3617 56.0059 81.972 55.7363 81.5411 55.5509C81.1102 55.3655 80.6467 55.2679 80.1778 55.2638C79.7089 55.2597 79.2438 55.3492 78.8098 55.5271C78.3757 55.705 77.9814 55.9678 77.6498 56.3C77.3182 56.6322 77.0559 57.0272 76.8784 57.462C76.7008 57.8968 76.6114 58.3627 76.6155 58.8325C76.6196 59.3023 76.717 59.7666 76.9021 60.1983C77.0872 60.6299 77.3562 61.0203 77.6936 61.3467L84.7571 68.423C85.4246 69.0935 86.3252 69.4614 87.254 69.4614L87.7432 69.426C88.2845 69.3502 88.8009 69.1495 89.2516 68.8397C89.7024 68.53 90.0752 68.1197 90.3408 67.6411L99.1702 51.7195C99.3956 51.3134 99.539 50.8668 99.5921 50.4052C99.6452 49.9436 99.6071 49.476 99.4798 49.0292C99.3526 48.5824 99.1387 48.1651 98.8505 47.801C98.5622 47.437 98.2052 47.1334 97.7999 46.9076Z" fill="#E7742E"/>
</g>
<defs>
<clipPath id="clip0_646_362">
<rect width="92" height="92" fill="white" transform="translate(20 4)"/>
</clipPath>
</defs>
</svg>
