<svg width="160" height="95" viewBox="0 0 160 95" fill="none" xmlns="http://www.w3.org/2000/svg">
<path d="M107.755 19H14.2519C11.9143 19 10 20.9015 10 23.2233V76.6969C10 79.0187 11.9143 80.9202 14.2519 80.9202H52.4994V92.1802H42.5827C40.2451 92.1802 38.3308 92.814 38.3308 93.5901C38.3308 94.3662 40.2451 95 42.5827 95H79.4173C81.7548 95 83.6692 94.3662 83.6692 93.5901C83.6692 92.814 81.7548 92.1802 79.4173 92.1802H69.5005V80.9202H107.748C110.086 80.9202 112 79.0187 112 76.6969V23.2233C112 20.9015 110.092 19 107.755 19ZM108.601 77.2595H13.6854V22.3825H108.601V77.2595Z" fill="#E7742E"/>
<path d="M147.635 35H124.365C121.965 35 120 36.8854 120 39.1877V90.8123C120 93.1146 121.965 95 124.365 95H147.635C150.035 95 152 93.1146 152 90.8123V39.1877C152 36.8854 150.035 35 147.635 35ZM136.003 74.068C134.406 74.068 133.095 72.811 133.095 71.2783C133.095 69.7456 134.406 68.4887 136.003 68.4887C137.601 68.4887 138.911 69.7456 138.911 71.2783C138.911 72.811 137.601 74.068 136.003 74.068ZM149.092 61.5113H122.915V54.534H149.092V61.5113ZM149.092 53.1424H122.915V46.165H149.092V53.1424ZM149.092 44.767H122.915V37.7897H149.092V44.767Z" fill="#E7742E"/>
</svg>
