<svg width="160" height="95" viewBox="0 0 160 95" fill="none" xmlns="http://www.w3.org/2000/svg">
<path d="M38.6938 29L121.31 28.9813C123.9 28.9804 126 26.9387 126 24.4206L125.998 15.558C125.998 13.0399 123.898 10.9991 121.306 11L38.6902 11.0187C36.0996 11.0196 34 13.0614 34 15.5794L34.0018 24.4411C34.0028 26.9592 36.1033 29 38.6938 29ZM116.059 17.4516C117.502 17.4516 118.672 18.5889 118.672 19.992C118.672 21.395 117.502 22.5323 116.059 22.5323C114.616 22.5323 113.445 21.395 113.445 19.992C113.445 18.5889 114.616 17.4516 116.059 17.4516ZM106.071 17.4534C107.515 17.4534 108.685 18.5907 108.685 19.9938C108.685 21.3968 107.515 22.5341 106.071 22.5341C104.628 22.5341 103.458 21.3968 103.458 19.9938C103.458 18.5907 104.628 17.4534 106.071 17.4534ZM96.0834 17.4561C97.5268 17.4561 98.6969 18.5934 98.6969 19.9964C98.6969 21.3995 97.5268 22.5368 96.0834 22.5368C94.6399 22.5368 93.4699 21.3995 93.4699 19.9964C93.4699 18.5934 94.6399 17.4561 96.0834 17.4561ZM41.3303 19.7083C41.3303 18.4765 42.3663 17.4686 43.6336 17.4686L81.9643 17.4597C83.2315 17.4597 84.2685 18.4667 84.2685 19.6985V20.3006C84.2685 21.5315 83.2315 22.5394 81.9652 22.5403L43.6345 22.5493C42.3672 22.5493 41.3303 21.5422 41.3303 20.3104V19.7083Z" fill="#E7742E"/>
<path d="M121.306 33L38.6902 33.0187C36.0996 33.0196 34 35.0612 34 37.5792L34.0018 46.4414C34.0028 48.9593 36.1033 51 38.6938 51L121.31 50.9813C123.9 50.9804 126 48.9388 126 46.4208L125.998 37.5595C125.998 35.0398 123.898 32.9991 121.306 33ZM84.2685 42.2992C84.2685 43.531 83.2315 44.5389 81.9652 44.5389L43.6345 44.5478C42.3672 44.5478 41.3303 43.5408 41.3303 42.3091V41.707C41.3303 40.4753 42.3663 39.4674 43.6336 39.4674L81.9643 39.4585C83.2315 39.4585 84.2685 40.4654 84.2685 41.6972V42.2992ZM96.0834 44.5362C94.6399 44.5362 93.4699 43.399 93.4699 41.996C93.4699 40.593 94.6399 39.4558 96.0834 39.4558C97.5269 39.4558 98.6969 40.593 98.6969 41.996C98.6969 43.399 97.5269 44.5362 96.0834 44.5362ZM106.071 44.5335C104.628 44.5335 103.458 43.3963 103.458 41.9933C103.458 40.5903 104.628 39.4531 106.071 39.4531C107.515 39.4531 108.685 40.5903 108.685 41.9933C108.685 43.3963 107.515 44.5335 106.071 44.5335ZM116.059 44.5309C114.616 44.5309 113.445 43.3936 113.445 41.9906C113.445 40.5876 114.616 39.4504 116.059 39.4504C117.502 39.4504 118.672 40.5876 118.672 41.9906C118.672 43.3936 117.502 44.5309 116.059 44.5309Z" fill="#E7742E"/>
<path d="M121.306 55L38.6902 55.0187C36.0996 55.0196 34 57.0613 34 59.5794L34.0018 68.4411C34.0028 70.9592 36.1033 73 38.6938 73L121.31 72.9813C123.9 72.9804 126 70.9387 126 68.4206L125.998 59.5589C125.998 57.0408 123.898 55 121.306 55ZM84.2685 64.3006C84.2685 65.5315 83.2315 66.5394 81.9652 66.5403L43.6345 66.5493C42.3672 66.5493 41.3303 65.5422 41.3303 64.3104V63.7083C41.3303 62.4765 42.3663 61.4686 43.6336 61.4686L81.9643 61.4597C83.2315 61.4597 84.2685 62.4667 84.2685 63.6985V64.3006ZM96.0834 66.5368C94.6399 66.5368 93.4699 65.3995 93.4699 63.9964C93.4699 62.5934 94.6399 61.4561 96.0834 61.4561C97.5268 61.4561 98.6969 62.5934 98.6969 63.9964C98.6969 65.3995 97.5268 66.5368 96.0834 66.5368ZM106.071 66.535C104.628 66.535 103.458 65.3977 103.458 63.9946C103.458 62.5916 104.628 61.4543 106.071 61.4543C107.515 61.4543 108.685 62.5916 108.685 63.9946C108.685 65.3977 107.515 66.535 106.071 66.535ZM116.059 66.5323C114.616 66.5323 113.445 65.395 113.445 63.992C113.445 62.5889 114.616 61.4516 116.059 61.4516C117.502 61.4516 118.672 62.5889 118.672 63.992C118.672 65.395 117.502 66.5323 116.059 66.5323Z" fill="#E7742E"/>
<path d="M121.306 77L38.6902 77.0187C36.0996 77.0196 34 79.0613 34 81.5794L34.0018 90.4411C34.0028 92.9592 36.1033 95 38.6938 95L121.31 94.9813C123.9 94.9804 126 92.9387 126 90.4206L125.998 81.558C125.998 79.0399 123.898 76.9991 121.306 77ZM84.2685 86.3006C84.2685 87.5315 83.2315 88.5394 81.9652 88.5403L43.6345 88.5493C42.3672 88.5493 41.3303 87.5422 41.3303 86.3104V85.7083C41.3303 84.4765 42.3663 83.4686 43.6336 83.4686L81.9643 83.4597C83.2315 83.4597 84.2685 84.4667 84.2685 85.6985V86.3006ZM96.0834 88.5368C94.6399 88.5368 93.4699 87.3995 93.4699 85.9964C93.4699 84.5934 94.6399 83.4561 96.0834 83.4561C97.5268 83.4561 98.6969 84.5934 98.6969 85.9964C98.6969 87.3995 97.5268 88.5368 96.0834 88.5368ZM106.071 88.5341C104.628 88.5341 103.458 87.3968 103.458 85.9938C103.458 84.5907 104.628 83.4534 106.071 83.4534C107.515 83.4534 108.685 84.5907 108.685 85.9938C108.685 87.3968 107.515 88.5341 106.071 88.5341ZM116.059 88.5323C114.616 88.5323 113.445 87.395 113.445 85.992C113.445 84.5889 114.616 83.4516 116.059 83.4516C117.502 83.4516 118.672 84.5889 118.672 85.992C118.672 87.395 117.502 88.5323 116.059 88.5323Z" fill="#E7742E"/>
</svg>
