<svg width="132" height="96" viewBox="0 0 132 96" fill="none" xmlns="http://www.w3.org/2000/svg">
<rect width="132" height="96" fill="white"/>
<path d="M57.5966 29H74.4244C75.2857 29 76 28.32 76 27.5C76 26.68 75.2857 26 74.4244 26H57.5756C56.7143 26 56 26.68 56 27.5C56 28.32 56.7143 29 57.5966 29Z" fill="#E7742E"/>
<path d="M85.813 82.9391H88.5462C89.3409 82.9391 90 82.2487 90 81.4162C90 80.5838 89.3022 79.9137 88.5074 79.9137H85.7742C84.1459 79.9137 82.6146 80.5838 81.4515 81.7817L79.8426 83.467L73.8723 78.5939C73.5428 78.3299 73.1163 78.2284 72.7092 78.2893C72.3022 78.3706 71.9532 78.6345 71.7206 79L70.6933 80.8071L68.0376 75.7919C67.7856 75.3249 67.301 75.0203 66.797 75C66.2737 75 65.7891 75.264 65.5177 75.731L62.2223 81.4975C61.6408 82.5127 60.5941 83.1218 59.4698 83.1218H57.4538C56.6591 83.1218 56 83.8122 56 84.6447C56 85.4772 56.6591 86.1675 57.4538 86.1675H59.4698C61.6021 86.1675 63.618 84.9695 64.7229 83.0609L66.7389 79.5482L69.3945 84.5635C69.6465 85.0305 70.1311 85.335 70.6351 85.3553C71.1585 85.3553 71.6431 85.0914 71.9145 84.6244L73.4071 82.0254L79.106 86.6751C79.3774 86.8985 79.6876 87 79.9977 87C80.366 87 80.7537 86.8579 81.0251 86.5533" fill="#E7742E"/>
<path d="M100 27.188C100 25.9333 99.5139 24.7582 98.6023 23.8819L85.8814 11.3742C84.9902 10.4979 83.7748 10 82.5189 10H35.16C33.4179 10 32.0203 11.3942 32.0203 13.0871L32 92.9129C32 94.6257 33.4179 96 35.1397 96H47.3137H77.3536H96.8198C98.5416 96 99.9595 94.6257 99.9595 92.9129V37.5646H100V27.188ZM83.7545 13.5053L96.4349 25.9532H83.8558C83.7951 25.9532 83.7545 25.9134 83.7545 25.8536V13.5053ZM96.8198 93.0324H77.5967C77.5156 93.0125 77.4346 93.0125 77.3536 93.0125H35.16C35.0992 93.0125 35.0587 92.9727 35.0587 92.9129V13.0871C35.0587 13.0273 35.0992 12.9875 35.16 12.9875H80.7161V25.8536C80.7161 27.5665 82.134 28.9407 83.8558 28.9407H96.9211V92.9328C96.9211 92.9926 96.8805 93.0324 96.8198 93.0324Z" fill="#E7742E"/>
<path d="M46.4648 37.7224C45.6641 37.7224 45 38.4024 45 39.2224C45 40.0424 45.6445 40.7224 46.4648 40.7224H55V37.7224H46.4648Z" fill="#E7742E"/>
<path d="M46.4648 45.7224C45.6641 45.7224 45 46.4024 45 47.2224C45 48.0424 45.6445 48.7224 46.4648 48.7224H55V45.7224H46.4648Z" fill="#E7742E"/>
<path d="M46.4648 53.7224C45.6641 53.7224 45 54.4024 45 55.2224C45 56.0424 45.6445 56.7224 46.4648 56.7224H55V53.7224H46.4648Z" fill="#E7742E"/>
<path d="M46.4648 61.7224C45.6641 61.7224 45 62.4024 45 63.2224C45 64.0424 45.6445 64.7224 46.4648 64.7224H55V61.7224H46.4648Z" fill="#E7742E"/>
<path d="M85.5294 40.7222C86.3333 40.7222 87 40.0422 87 39.2222C87 38.4022 86.3333 37.7222 85.5294 37.7222H77V40.7222H85.5294Z" fill="#E7742E"/>
<path d="M85.5294 48.7222C86.3333 48.7222 87 48.0422 87 47.2222C87 46.4022 86.3333 45.7222 85.5294 45.7222H77V48.7222H85.5294Z" fill="#E7742E"/>
<path d="M85.5294 56.7222C86.3333 56.7222 87 56.0422 87 55.2222C87 54.4022 86.3333 53.7222 85.5294 53.7222H77V56.7222H85.5294Z" fill="#E7742E"/>
<path d="M85.5294 64.7222C86.3333 64.7222 87 64.0422 87 63.2222C87 62.4022 86.3333 61.7222 85.5294 61.7222H77V64.7222H85.5294Z" fill="#E7742E"/>
<path d="M69.89 37.0234C69.7043 37.0234 69.5187 37.0632 69.3517 37.1428C69.0918 37.2025 68.832 37.3418 68.6278 37.5608L59.7925 46.9737C59.2357 47.5707 59.2357 48.5657 59.7925 49.1627C60.3494 49.7598 61.2589 49.7797 61.8343 49.1627L68.4793 42.0981V63.4712C68.4793 64.307 69.1289 65.0234 69.9271 65.0234C70.7067 65.0234 71.3749 64.3468 71.3749 63.4712V38.5558C71.3192 37.72 70.6695 37.0234 69.89 37.0234Z" fill="#E7742E"/>
</svg>
