<svg width="76" height="69" viewBox="0 0 76 69" fill="none" xmlns="http://www.w3.org/2000/svg">
<path d="M9.77463 7.52048H29.5506V0.800484H3.05463L1.23063 38.1445H8.23863V36.6085C8.91063 31.7125 11.6946 29.4085 15.8226 29.4085C21.1986 29.4085 23.6946 33.0565 23.6946 39.1045V52.1605C23.6946 58.2085 21.1986 61.8565 15.8226 61.8565C10.4466 61.8565 7.95063 58.2085 7.95063 52.1605V47.1685H0.942625V51.6805C0.942625 61.9525 5.74263 68.6725 16.0146 68.6725C26.2866 68.6725 31.1826 61.9525 31.1826 51.6805V38.5285C31.1826 28.9285 27.3426 22.5925 18.7026 22.5925C14.1906 22.5925 10.8306 24.5125 8.71863 28.1605L9.77463 7.52048ZM44.1636 52.5445C49.0596 52.5445 52.4676 48.9925 52.4676 43.2805C52.4676 37.5685 49.0596 34.0165 44.1636 34.0165C39.2676 34.0165 35.8116 37.6165 35.8116 43.2805C35.8116 48.9445 39.2676 52.5445 44.1636 52.5445ZM41.2356 68.0005H46.9476L69.8916 34.4005H64.1796L41.2356 68.0005ZM44.1636 48.6085C42.0996 48.6085 40.6596 46.8325 40.6596 43.2805C40.6596 39.7285 42.0996 37.9525 44.1636 37.9525C46.2756 37.9525 47.6676 39.6805 47.6676 43.2805C47.6676 46.8805 46.2756 48.6085 44.1636 48.6085ZM66.9636 68.3845C71.8596 68.3845 75.3156 64.7845 75.3156 59.1205C75.3156 53.4565 71.8596 49.8565 66.9636 49.8565C62.1156 49.8565 58.6596 53.4565 58.6596 59.1205C58.6596 64.7845 62.1156 68.3845 66.9636 68.3845ZM66.9636 64.4485C64.8996 64.4485 63.4596 62.7205 63.4596 59.1205C63.4596 55.5205 64.8996 53.7925 66.9636 53.7925C69.0756 53.7925 70.4676 55.5685 70.4676 59.1205C70.4676 62.6725 69.0756 64.4485 66.9636 64.4485Z" fill="#E7742E"/>
</svg>
