<svg width="132" height="96" viewBox="0 0 132 96" fill="none" xmlns="http://www.w3.org/2000/svg">
<path d="M32.4581 33C36.8837 33 40.4581 29.4255 40.4581 25C40.4581 20.5745 36.8837 17 32.4581 17C28.0326 17 24.4581 20.5745 24.4581 25C24.5432 29.4255 28.1177 33 32.4581 33Z" fill="#E7742E"/>
<path d="M32.4581 77C36.8837 77 40.4581 73.4255 40.4581 69C40.4581 64.5745 36.8837 61 32.4581 61C28.0326 61 24.4581 64.5745 24.4581 69C24.5432 73.4255 28.1177 77 32.4581 77Z" fill="#E7742E"/>
<path d="M98.9131 33C103.339 33 106.913 29.4255 106.913 25C106.913 20.5745 103.339 17 98.9131 17C94.4875 17 90.9131 20.5745 90.9131 25C90.9982 29.4255 94.5727 33 98.9131 33Z" fill="#E7742E"/>
<path d="M110 51.5199V38.6776C110 36.1262 108.122 34 105.818 34H93.0145C90.71 34 88.8322 36.1262 88.8322 38.6776V41.9095L82.0039 48.7133C81.5771 48.5432 81.1503 48.4582 80.6382 48.4582H52.13C51.5325 48.4582 51.0204 48.6283 50.5936 48.7984L43.1678 42.0796V38.6776C43.1678 36.1262 41.29 34 38.9855 34H26.1823C23.8778 34 22 36.1262 22 38.6776V51.5199C22 51.69 22.0854 51.775 22.0854 51.9451H43.0824C43.0824 51.775 43.1678 51.69 43.1678 51.5199V45.5665L48.8012 50.6694C48.5451 51.1797 48.4597 51.69 48.4597 52.2003V69.0398C48.4597 69.6351 48.6305 70.2305 48.8865 70.7407L42.3143 79.8409C41.5461 78.7353 40.3511 78.0549 39.0708 78.0549H26.2677C23.9631 78.0549 22.0854 80.1811 22.0854 82.7325V95.5748C22.0854 95.7449 22.1707 95.8299 22.1707 96H43.1678C43.1678 95.8299 43.2532 95.7449 43.2532 95.5748V82.9877L50.8497 72.4417C51.2764 72.6118 51.7886 72.6969 52.3007 72.6969H80.8089C81.321 72.6969 81.7478 72.6118 82.1746 72.4417L89.0883 81.7119C89.0029 82.0521 89.0029 82.3073 89.0029 82.6475V95.4897C89.0029 95.6598 89.0883 95.7449 89.0883 95.915H109.915C109.915 95.7449 110 95.6598 110 95.4897V82.6475C110 80.096 108.122 77.9698 105.818 77.9698H93.0145C91.9049 77.9698 90.9661 78.3951 90.1979 79.1605L83.8817 70.7407C84.1377 70.2305 84.3938 69.6351 84.3938 68.9547V52.2003C84.3938 51.5199 84.2231 51.0096 83.967 50.4143L88.8322 45.5665V51.5199C88.8322 51.69 88.9176 51.775 88.9176 51.9451H109.915C110 51.775 110 51.69 110 51.5199Z" fill="#E7742E"/>
<path d="M90.9978 69C90.9978 73.4255 94.5723 77 98.9978 77C103.423 77 106.998 73.4255 106.998 69C106.998 64.5745 103.423 61 98.9978 61C94.5723 61 90.9978 64.5745 90.9978 69Z" fill="#E7742E"/>
<path d="M56.744 56.125H53V64.875H54.69V62.35H56.744C59.136 62.35 60.618 61.1625 60.618 59.2375C60.618 57.3 59.136 56.125 56.744 56.125ZM56.666 60.975H54.69V57.5H56.666C58.148 57.5 58.915 58.1375 58.915 59.2375C58.915 60.3375 58.148 60.975 56.666 60.975Z" fill="white"/>
<path d="M70.0797 64.875L67.9867 62C69.2217 61.5375 69.9237 60.5625 69.9237 59.2375C69.9237 57.3 68.4417 56.125 66.0497 56.125H62.3057V64.875H63.9957V62.325H66.0497C66.1667 62.325 66.2837 62.325 66.4007 62.3125L68.2597 64.875H70.0797ZM68.2207 59.2375C68.2207 60.3375 67.4537 60.9875 65.9717 60.9875H63.9957V57.5H65.9717C67.4537 57.5 68.2207 58.1375 68.2207 59.2375Z" fill="white"/>
<path d="M76.0655 65C78.8865 65 80.9665 63.1 80.9665 60.5C80.9665 57.9 78.8865 56 76.0655 56C73.2445 56 71.1645 57.9125 71.1645 60.5C71.1645 63.0875 73.2445 65 76.0655 65ZM76.0655 63.575C74.2325 63.575 72.8675 62.2875 72.8675 60.5C72.8675 58.7125 74.2325 57.425 76.0655 57.425C77.8985 57.425 79.2635 58.7125 79.2635 60.5C79.2635 62.2875 77.8985 63.575 76.0655 63.575Z" fill="white"/>
</svg>
