<svg width="132" height="96" viewBox="0 0 132 96" fill="none" xmlns="http://www.w3.org/2000/svg">
<path d="M64.6069 48.1166L62.9657 51.8146L68.8923 55.9929L68.1128 59.6955L61 61.1583L61.0124 65.2007L68.1346 66.6203L68.9373 70.3183L63.0371 74.5321L64.7016 78.2208L71.788 76.6344L74.0332 79.6883L70.3658 85.9257L73.3935 88.6211L79.2192 84.3053L82.5186 86.1867L81.719 93.3695L85.5867 94.6068L89.1439 88.306L92.9263 88.6891L95.1326 95.5737L99.1727 95.1381L99.8466 87.943L103.46 86.7629L108.29 92.16L111.802 90.1272L109.476 83.2812L112.294 80.7417L118.914 83.7183L121.292 80.4405L116.369 75.1284L117.904 71.6683L125.168 71.7085L126 67.7526L119.33 64.8918L119.317 61.1089L125.969 58.2065L125.112 54.2552L117.848 54.3401L116.291 50.8893L121.182 45.5463L118.783 42.2839L112.183 45.3007L109.349 42.7782L111.633 35.9183L108.108 33.9071L103.312 39.3336L99.6913 38.1751L98.9724 30.9846L94.9292 30.5737L92.7663 37.4723L88.9856 37.88L85.3895 31.6009L81.528 32.8614L82.3727 40.0395L79.0857 41.941L73.2336 37.6607L70.2229 40.3747L73.9292 46.5905L71.7026 49.6582L64.6069 48.1166ZM98.6805 49.7509C106.101 52.573 109.818 60.8448 106.981 68.2268C104.144 75.6088 95.8298 79.3067 88.4095 76.4846C80.9892 73.6625 77.2721 65.3907 80.1089 58.0087C82.9456 50.6267 91.2602 46.9288 98.6805 49.7509Z" fill="#E7742E"/>
<path d="M30.3746 26.2998L27.3774 27.1461L27.8143 32.6891L25.2376 34.0456L20.875 30.5688L18.4866 32.5581L21.1463 37.4531L19.3505 39.7401L13.953 38.3279L12.5859 41.1185L17.0091 44.5195L16.3027 47.3409L10.804 48.238L10.6955 51.3447L16.1155 52.6621L16.6225 55.5295L11.9739 58.5801L13.1427 61.4684L18.6234 60.4754L20.2553 62.8937L17.26 67.5719L19.5035 69.7405L24.0971 66.6086L26.5728 68.1595L25.749 73.6538L28.6798 74.7285L31.5928 69.999L34.4827 70.4154L35.9732 75.7772L39.0847 75.5717L39.8119 70.0629L42.6166 69.2712L46.1633 73.5739L48.916 72.1248L47.3328 66.7879L49.5687 64.9249L54.5574 67.4238L56.4764 64.9799L52.855 60.7399L54.1346 58.1289L59.7046 58.3914L60.4584 55.3766L55.426 52.9642L55.527 50.0569L60.7134 48.0393L60.1725 44.975L54.5999 44.8095L53.5061 42.1076L57.4127 38.1566L55.6683 35.5714L50.5179 37.6792L48.418 35.6499L50.3701 30.45L47.7258 28.7925L43.8888 32.8104L41.1455 31.8045L40.8054 26.2549L37.7176 25.8106L35.8567 31.0439L32.9453 31.2366L30.3746 26.2998ZM46.155 47.1913C48.1313 52.9511 45.0566 59.1993 39.2877 61.1468C33.5192 63.0958 27.2417 60.006 25.2668 54.2459C23.2905 48.4862 26.3652 42.238 32.1341 40.2905C37.9015 38.3433 44.1786 41.4316 46.155 47.1913Z" fill="#E7742E"/>
</svg>
