<svg width="132" height="96" viewBox="0 0 132 96" fill="none" xmlns="http://www.w3.org/2000/svg">
<path d="M107.143 20H24.8571C21.0857 20 18 23.06 18 26.8V81.2C18 84.94 21.0857 88 24.8571 88H107.143C110.914 88 114 84.94 114 81.2V26.8C114 23.06 110.914 20 107.143 20ZM110.571 81.2H21.4286V23.4H110.571V81.2Z" fill="#E7742E"/>
<path d="M128.189 94C126.289 95.08 121.625 96 117.824 96H14.1758C10.3754 96 5.71122 95.08 3.811 94C1.91078 92.92 3.46551 92 7.26595 92H124.734C128.534 92 130.089 92.92 128.189 94Z" fill="#E7742E"/>
<path d="M90.9264 50.1198C90.7607 47.9104 88.8645 46.1798 86.6001 46.1798H85.7165C85.3115 44.7805 84.7408 43.4365 84.0412 42.1662L84.6672 41.5402C86.2504 39.9568 86.3792 37.3793 84.9433 35.7039C84.5383 35.2252 84.1149 34.7649 83.673 34.323C83.2312 33.8812 82.771 33.4577 82.2923 33.0527C80.6171 31.6166 78.0398 31.7455 76.4566 33.3288L75.8306 33.9548C74.542 33.2552 73.1981 32.7028 71.8174 32.2794V31.3957C71.8174 29.1495 70.0869 27.2532 67.8778 27.069C66.6259 26.977 65.3741 26.977 64.1222 27.069C61.9131 27.2347 60.1826 29.1311 60.1826 31.3957V32.2794C58.7835 32.6844 57.4396 33.2552 56.1694 33.9548L55.5434 33.3288C53.9602 31.7455 51.3829 31.6166 49.7077 33.0527C49.229 33.4577 48.7688 33.8812 48.327 34.323C47.8851 34.7649 47.4617 35.2252 47.0567 35.7039C45.6208 37.3793 45.7496 39.9568 47.3328 41.5402L47.9588 42.1662C47.2592 43.4549 46.7069 44.799 46.2835 46.1798H45.3999C43.1539 46.1798 41.2577 47.9104 41.0736 50.1198C41.0184 50.7457 41 51.3717 41 51.9977C41 52.6237 41.0184 53.2497 41.0736 53.8756C41.2393 56.085 43.1355 57.8156 45.3999 57.8156H46.2835C46.6885 59.2149 47.2592 60.5589 47.9588 61.8292L47.3328 62.4552C45.7496 64.0386 45.6208 66.6161 47.0567 68.2915C47.4617 68.7702 47.8851 69.2305 48.327 69.6724C48.7688 70.1142 49.229 70.5377 49.7077 70.9427C51.3829 72.3788 53.9602 72.2499 55.5434 70.6666L56.1694 70.0406C57.458 70.7402 58.8019 71.2926 60.1826 71.716V72.5997C60.1826 74.8459 61.9131 76.7422 64.1222 76.9263C64.7482 76.9816 65.3741 77 66 77C66.6259 77 67.2518 76.9816 67.8778 76.9263C70.0869 76.7607 71.8174 74.8643 71.8174 72.5997V71.716C73.2165 71.311 74.5604 70.7402 75.8306 70.0406L76.4566 70.6666C78.0398 72.2499 80.6171 72.3788 82.2923 70.9427C82.771 70.5377 83.2312 70.1142 83.673 69.6724C84.1149 69.2305 84.5383 68.7702 84.9433 68.2915C86.3792 66.6161 86.2504 64.0386 84.6672 62.4552L84.0412 61.8292C84.7408 60.5405 85.2931 59.1964 85.7165 57.8156H86.6001C88.8461 57.8156 90.7423 56.085 90.9264 53.8756C90.9816 53.2497 91 52.6237 91 51.9977C91 51.3717 90.9816 50.7457 90.9264 50.1198ZM88.1649 53.6547C88.1097 54.428 87.4102 55.0355 86.6001 55.0355H84.6487C84.0044 55.0355 83.4521 55.4774 83.3049 56.1034C82.863 57.9445 82.1451 59.712 81.1325 61.3321C80.8012 61.8845 80.8748 62.5841 81.3351 63.026L82.7158 64.4068C83.2864 64.9775 83.3417 65.8981 82.8446 66.4872C82.4764 66.9107 82.1082 67.3157 81.7216 67.7024C81.3351 68.089 80.93 68.4757 80.5066 68.8255C79.9175 69.341 78.9971 69.2673 78.4264 68.6966L77.0457 67.3157C76.5854 66.8555 75.8859 66.7818 75.352 67.1132C73.732 68.1074 71.9831 68.8439 70.1237 69.2857C69.4978 69.433 69.056 69.9854 69.056 70.6297V72.5997C69.056 73.4098 68.4485 74.1094 67.6753 74.1647C66.5707 74.2567 65.4661 74.2567 64.3616 74.1647C63.5884 74.1094 62.9809 73.4098 62.9809 72.5997V70.6482C62.9809 70.0038 62.539 69.4514 61.9131 69.3041C60.0722 68.8623 58.3049 68.1442 56.6848 67.1316C56.4639 66.9843 56.2062 66.9291 55.9669 66.9291C55.6171 66.9291 55.2489 67.0764 54.9912 67.3342L53.6105 68.715C53.0398 69.2857 52.1193 69.341 51.5302 68.8439C51.1068 68.4757 50.7018 68.1074 50.3152 67.7208C49.9286 67.3342 49.542 66.9291 49.1922 66.5057C48.6767 65.9165 48.7504 64.9959 49.3211 64.4252L50.7018 63.0444C51.162 62.5841 51.2356 61.8845 50.9043 61.3505C49.9102 59.7304 49.1738 57.9813 48.732 56.1218C48.5847 55.4958 48.0324 55.0539 47.3881 55.0539H45.4367C44.6267 55.0539 43.9271 54.4464 43.8719 53.6731C43.8351 53.1208 43.7982 52.5684 43.7982 52.0161C43.7982 51.4638 43.8166 50.9114 43.8719 50.3591C43.9271 49.5858 44.6267 48.9783 45.4367 48.9783H47.3881C48.0324 48.9783 48.5847 48.5364 48.732 47.9104C49.1738 46.0693 49.8918 44.3018 50.9043 42.6817C51.2356 42.1293 51.162 41.4297 50.7018 40.9878L49.3211 39.607C48.7504 39.0363 48.6951 38.1157 49.1922 37.5266C49.5604 37.1031 49.9286 36.6981 50.3152 36.3114C50.7018 35.9248 51.1068 35.5382 51.5302 35.1883C52.1193 34.6728 53.0398 34.7465 53.6105 35.3172L54.9912 36.6981C55.4514 37.1583 56.151 37.232 56.6848 36.9006C58.3049 35.9064 60.0538 35.1699 61.9131 34.7281C62.539 34.5808 62.9809 34.0284 62.9809 33.3841V31.4325C62.9809 30.6224 63.5884 29.9228 64.3616 29.8675C65.4661 29.7755 66.5707 29.7755 67.6753 29.8675C68.4485 29.9228 69.056 30.6224 69.056 31.4325V33.3841C69.056 34.0284 69.4978 34.5808 70.1237 34.7281C71.9647 35.1699 73.732 35.888 75.352 36.9006C75.9043 37.232 76.6038 37.1583 77.0457 36.6981L78.4264 35.3172C78.9971 34.7465 79.9175 34.6912 80.5066 35.1883C80.93 35.5566 81.3351 35.9248 81.7216 36.3114C82.1082 36.6981 82.4948 37.1031 82.8446 37.5266C83.3601 38.1157 83.2864 39.0363 82.7158 39.607L81.3351 40.9878C80.8748 41.4481 80.8012 42.1477 81.1325 42.6817C82.1267 44.3018 82.863 46.0509 83.3049 47.9104C83.4521 48.5364 84.0044 48.9783 84.6487 48.9783H86.6001C87.4102 48.9783 88.1097 49.5858 88.1649 50.3591C88.2018 50.9114 88.2386 51.4638 88.2386 52.0161C88.2386 52.5684 88.2202 53.1024 88.1649 53.6547Z" fill="#E7742E"/>
<path d="M53.6105 47.6896L61.7475 51.7584C61.7291 51.961 61.7107 52.1635 61.7107 52.366C61.7107 54.741 63.6437 56.6926 66.0369 56.6926C68.4117 56.6926 70.3631 54.7594 70.3631 52.366C70.3631 51.6664 70.1974 51.022 69.9029 50.4328L77.3219 43.0132C77.8558 42.4792 77.8558 41.5955 77.3219 41.0616C76.788 40.5277 75.9044 40.5277 75.3705 41.0616L67.9515 48.4813C67.3624 48.1867 66.718 48.021 66.0185 48.021C64.8219 48.021 63.7541 48.5181 62.9625 49.2913L54.8256 45.2225C54.1444 44.8911 53.316 45.1673 52.9662 45.8485C52.6348 46.5297 52.911 47.3582 53.6105 47.6896ZM64.4537 52.3844C64.4537 51.5191 65.1532 50.8195 66.0185 50.8195C66.8837 50.8195 67.5833 51.5191 67.5833 52.3844C67.5833 53.2497 66.8837 53.9494 66.0185 53.9494C65.1532 53.9494 64.4537 53.2497 64.4537 52.3844Z" fill="#E7742E"/>
<path d="M66 40.1042C66.7548 40.1042 67.3807 39.4782 67.3807 38.7234V37.2505C67.3807 36.4956 66.7548 35.8696 66 35.8696C65.2452 35.8696 64.6193 36.4956 64.6193 37.2505V38.7234C64.6193 39.4782 65.2452 40.1042 66 40.1042Z" fill="#E7742E"/>
<path d="M66 63.9097C65.2452 63.9097 64.6193 64.5356 64.6193 65.2905V66.7634C64.6193 67.5182 65.2452 68.1442 66 68.1442C66.7548 68.1442 67.3807 67.5182 67.3807 66.7634V65.2905C67.3807 64.5172 66.7732 63.9097 66 63.9097Z" fill="#E7742E"/>
<path d="M80.7643 50.6172H79.2916C78.5368 50.6172 77.9109 51.2432 77.9109 51.998C77.9109 52.7529 78.5368 53.3789 79.2916 53.3789H80.7643C81.5191 53.3789 82.1451 52.7529 82.1451 51.998C82.1451 51.2432 81.5191 50.6172 80.7643 50.6172Z" fill="#E7742E"/>
<path d="M52.7268 50.6172H51.254C50.4992 50.6172 49.8733 51.2432 49.8733 51.998C49.8733 52.7529 50.4992 53.3789 51.254 53.3789H52.7268C53.4815 53.3789 54.1075 52.7529 54.1075 51.998C54.1075 51.2432 53.4815 50.6172 52.7268 50.6172Z" fill="#E7742E"/>
</svg>
