<svg width="160" height="95" viewBox="0 0 160 95" fill="none" xmlns="http://www.w3.org/2000/svg">
<path d="M121.143 19H38.8571C35.0857 19 32 22.06 32 25.8V80.2C32 83.94 35.0857 87 38.8571 87H121.143C124.914 87 128 83.94 128 80.2V25.8C128 22.06 124.914 19 121.143 19ZM124.571 80.2H35.4286V22.4H124.571V80.2Z" fill="#E7742E"/>
<path d="M142.189 93C140.289 94.08 135.625 95 131.824 95H28.1758C24.3754 95 19.7112 94.08 17.811 93C15.9108 91.92 17.4655 91 21.2659 91H138.734C142.534 91 144.089 91.92 142.189 93Z" fill="#E7742E"/>
</svg>
