<svg width="160" height="95" viewBox="0 0 160 95" fill="none" xmlns="http://www.w3.org/2000/svg">
<path d="M122.339 19H37.6667C35.6497 19 34 20.6545 34 22.6772V69.2594C34 71.2822 34 74.5911 34 76.6138V79.0634C34 81.0862 35.6497 82.7406 37.6667 82.7406H72.6667V92.5446H64.1092C62.0922 92.5446 60.4425 93.0942 60.4425 93.7723C60.4425 94.4446 62.0922 95 64.1092 95H95.8908C97.9078 95 99.5575 94.4505 99.5575 93.7723C99.5575 93.1 97.9078 92.5446 95.8908 92.5446H87.3333V82.7406H122.333C124.35 82.7406 126 81.0862 126 79.0634V76.6138C126 74.5911 126 71.2822 126 69.2594V22.6772C126.006 20.6545 124.356 19 122.339 19ZM122.584 69.5049H37.9115V22.9228H122.584V69.5049Z" fill="#E7742E"/>
</svg>
