<svg width="132" height="96" viewBox="0 0 132 96" fill="none" xmlns="http://www.w3.org/2000/svg">
<path d="M25.3505 28C14.9889 28 10 34.5714 10 44.7619V54.9524C10 64.5714 13.8376 70.6667 22.4723 70.6667C27.8449 70.6667 31.4907 68.1905 33.3135 63.619V78.5714C33.3135 85.619 30.8191 89.2381 25.0627 89.2381C19.69 89.2381 17.0996 85.7143 17.0996 79.7143V78H10.0959V79.2381C10.0959 89.4286 14.9889 96 25.2545 96C35.9999 96 40.7969 89.3333 40.7969 78.7619V44.7619C40.7969 34.5714 35.712 28 25.3505 28ZM25.3505 34.7619C30.8191 34.7619 33.3135 38.2857 33.3135 44.381V54.381C33.3135 60.381 30.8191 64 25.3505 64C19.9778 64 17.3874 60.381 17.3874 54.381V44.381C17.3874 38.2857 19.9778 34.7619 25.3505 34.7619Z" fill="#E7742E"/>
<path d="M56.4996 35.3333H76.2634V28.6667H49.7838L47.9609 65.7143H54.9646V64.1905C55.6362 59.3333 58.4185 57.0476 62.5439 57.0476C67.9166 57.0476 70.411 60.6667 70.411 66.6667V79.619C70.411 85.619 67.9166 89.2381 62.5439 89.2381C57.1712 89.2381 54.6768 85.619 54.6768 79.619V74.6667H47.6731V79.1429C47.6731 89.3333 52.4701 96 62.7358 96C73.0014 96 77.8944 89.3333 77.8944 79.1429V66.0952C77.8944 56.5714 74.0567 50.2857 65.4221 50.2857C60.9129 50.2857 57.555 52.1905 55.4443 55.8095L56.4996 35.3333Z" fill="#E7742E"/>
<path d="M90.8673 80C95.7603 80 99.1662 76.4762 99.1662 70.8095C99.1662 65.1429 95.7603 61.619 90.8673 61.619C85.9743 61.619 82.5205 65.1905 82.5205 70.8095C82.5205 76.4286 85.9743 80 90.8673 80ZM87.9411 95.3333H93.6496L116.579 62H110.871L87.9411 95.3333ZM90.8673 76.0952C88.8046 76.0952 87.3655 74.3333 87.3655 70.8095C87.3655 67.2857 88.8046 65.5238 90.8673 65.5238C92.978 65.5238 94.3691 67.2381 94.3691 70.8095C94.3691 74.381 92.978 76.0952 90.8673 76.0952ZM113.653 95.7143C118.546 95.7143 122 92.1429 122 86.5238C122 80.9048 118.546 77.3333 113.653 77.3333C108.808 77.3333 105.354 80.9048 105.354 86.5238C105.354 92.1429 108.808 95.7143 113.653 95.7143ZM113.653 91.8095C111.59 91.8095 110.151 90.0952 110.151 86.5238C110.151 82.9524 111.59 81.2381 113.653 81.2381C115.764 81.2381 117.155 83 117.155 86.5238C117.155 90.0476 115.764 91.8095 113.653 91.8095Z" fill="#E7742E"/>
</svg>
