<svg width="160" height="95" viewBox="0 0 160 95" fill="none" xmlns="http://www.w3.org/2000/svg">
<path d="M97.8052 24.0302L96.8354 26.5125C96.6741 26.8327 96.4193 27.0725 96.071 27.2319C95.7228 27.3913 95.3884 27.3904 95.0677 27.2293L90.4976 25.3738C89.5846 26.6539 88.4849 27.7197 87.1984 28.5714L89.1126 33.1451C89.2721 33.5196 89.2712 33.8669 89.1098 34.1871C88.9485 34.5073 88.707 34.7472 88.3856 34.9066L85.8947 35.9422C85.5732 36.1016 85.2388 36.1007 84.8914 35.9395C84.544 35.7783 84.2905 35.5372 84.1308 35.2162L82.2166 30.6424C81.36 30.8005 80.5839 30.8786 79.8883 30.8768C79.2462 30.8751 78.4973 30.793 77.6416 30.6305L75.7032 35.1942C75.5953 35.5145 75.3673 35.7544 75.0191 35.9138C74.6708 36.0732 74.3096 36.0723 73.9355 35.911L71.5304 34.8627C71.1561 34.7549 70.9025 34.5271 70.7697 34.1794C70.6368 33.8317 70.6244 33.471 70.7324 33.0973L72.6706 28.6137C71.3888 27.7019 70.2948 26.6036 69.3885 25.3188L64.8085 27.2306C64.4871 27.3366 64.1527 27.3224 63.8053 27.1879C63.4578 27.0534 63.2043 26.8256 63.0446 26.5046L62.088 24.0173C61.9285 23.6428 61.9161 23.2821 62.0508 22.9351C62.1854 22.5882 62.4402 22.3617 62.8151 22.2558L67.3149 20.3438C67.1566 19.4885 67.0784 18.7134 67.0802 18.0188C67.0819 17.3775 67.1642 16.6029 67.3272 15.6949L62.7571 13.8395C62.4364 13.6783 62.2097 13.4373 62.0768 13.1163C61.9438 12.7954 61.9314 12.448 62.0394 12.0742L63.0894 9.59218C63.2507 9.27199 63.4922 9.03215 63.8136 8.87268C64.1351 8.71321 64.4829 8.71412 64.8571 8.8754L69.4272 10.7309C70.2867 9.45063 71.3597 8.3847 72.6462 7.53308L70.8122 2.95952C70.6527 2.58505 70.6402 2.23768 70.7748 1.91742C70.9095 1.59715 71.1643 1.35735 71.5392 1.19802L74.0301 0.162508C74.3516 0.00303714 74.6861 0.00390854 75.0334 0.165122C75.3808 0.326335 75.6343 0.567458 75.794 0.888491L77.628 5.46205C78.4845 5.30398 79.2606 5.22584 79.9562 5.22766C80.6518 5.22947 81.4275 5.31165 82.2832 5.47418L84.1413 0.910241C84.3029 0.536609 84.5577 0.283452 84.9059 0.150769C85.254 0.018086 85.5884 0.0323163 85.909 0.19346L88.3944 1.24194C88.7687 1.34979 89.0223 1.57755 89.1551 1.92523C89.288 2.27291 89.2737 2.60685 89.1123 2.92705L87.2542 7.49099C88.536 8.40274 89.63 9.50103 90.5363 10.7859L95.0361 8.87388C95.4109 8.76799 95.7721 8.78229 96.1195 8.91679C96.467 9.05128 96.6938 9.27898 96.7999 9.59987L97.8368 12.0873C97.9963 12.4618 98.0087 12.8225 97.8741 13.1695C97.7394 13.5165 97.4846 13.7429 97.1098 13.8488L92.5297 15.7606C92.6879 16.616 92.7662 17.391 92.7643 18.0857C92.7625 18.7804 92.6802 19.555 92.5174 20.4095L97.0875 22.265C97.4616 22.4262 97.7151 22.6674 97.8481 22.9883C97.981 23.3093 97.9667 23.6566 97.8052 24.0302ZM79.9828 10.3576C77.8692 10.3521 76.0479 11.0954 74.519 12.5877C72.99 14.0799 72.2227 15.8947 72.217 18.0322C72.2114 20.1696 72.9691 21.9884 74.4901 23.4886C76.0111 24.9887 77.8284 25.7416 79.942 25.7471C82.0556 25.7526 83.8635 25.0092 85.3657 23.5169C86.8679 22.0246 87.6218 20.2097 87.6275 18.0723C87.6332 15.9349 86.8888 14.1161 85.3946 12.616C83.9003 11.1159 82.0964 10.3631 79.9828 10.3576Z" fill="#E7742E"/>
<path d="M77.3294 51.1934L75.8145 54.6069L81.2852 58.4639L80.5657 61.8816L74 63.2319L74.0115 66.9634L80.5858 68.2738L81.3268 71.6873L75.8804 75.577L77.4169 78.9819L83.9582 77.5176L86.0307 80.3365L82.6453 86.0941L85.4402 88.5822L90.8177 84.5984L93.8634 86.3351L93.1252 92.9653L96.6955 94.1074L99.979 88.2913L103.47 88.645L105.507 95L109.236 94.5979L109.858 87.9563L113.194 86.8669L117.652 91.8488L120.894 89.9724L118.747 83.653L121.349 81.3089L127.459 84.0566L129.654 81.0309L125.11 76.1274L126.527 72.9335L133.232 72.9705L134 69.3189L127.843 66.6782L127.831 63.1863L133.971 60.5071L133.18 56.8598L126.475 56.9382L125.038 53.7529L129.553 48.8208L127.338 45.8094L121.246 48.5941L118.63 46.2657L120.738 39.9335L117.485 38.077L113.057 43.086L109.715 42.0166L109.051 35.3793L105.319 35L103.323 41.3679L99.8328 41.7443L96.5134 35.9482L92.9489 37.1117L93.7286 43.7376L90.6945 45.4929L85.2925 41.5418L82.5135 44.0471L85.9346 49.7847L83.8794 52.6164L77.3294 51.1934ZM108.782 52.702C115.632 55.307 119.063 62.9425 116.444 69.7566C113.826 76.5708 106.151 79.9843 99.3011 77.3793C92.4516 74.7742 89.0204 67.1388 91.639 60.3246C94.2575 53.5105 101.933 50.097 108.782 52.702Z" fill="#E7742E"/>
<path d="M44.9372 31.2535L42.2397 32.0151L42.6329 37.0039L40.3139 38.2247L36.3875 35.0956L34.238 36.8859L36.6317 41.2914L35.0154 43.3497L30.1577 42.0787L28.9273 44.5903L32.9082 47.6512L32.2724 50.1904L27.3236 50.9979L27.226 53.7939L32.1039 54.9795L32.5603 57.5602L28.3765 60.3058L29.4284 62.9052L34.3611 62.0115L35.8297 64.188L33.134 68.3983L35.1531 70.3501L39.2874 67.5314L41.5155 68.9272L40.7741 73.8721L43.4118 74.8393L46.0335 70.5828L48.6344 70.9575L49.9759 75.7831L52.7763 75.5982L53.4307 70.6402L55.955 69.9277L59.147 73.8002L61.6244 72.4959L60.1995 67.6928L62.2118 66.016L66.7017 68.2651L68.4287 66.0656L65.1695 62.2496L66.3212 59.8997L71.3341 60.1359L72.0125 57.4226L67.4834 55.2515L67.5743 52.6348L72.2421 50.819L71.7553 48.0612L66.7399 47.9122L65.7555 45.4805L69.2715 41.9246L67.7014 39.5979L63.0661 41.4949L61.1762 39.6686L62.9331 34.9886L60.5533 33.4969L57.0999 37.113L54.6309 36.2077L54.3249 31.2131L51.5459 30.8132L49.8711 35.5231L47.2508 35.6965L44.9372 31.2535ZM59.1395 50.0558C60.9182 55.2396 58.1509 60.863 52.9589 62.6158C47.7672 64.3699 42.1175 61.5891 40.3402 56.405C38.5614 51.2212 41.3287 45.5978 46.5207 43.8451C51.7113 42.0926 57.3608 44.8721 59.1395 50.0558Z" fill="#E7742E"/>
</svg>
