<svg width="103" height="69" viewBox="0 0 103 69" fill="none" xmlns="http://www.w3.org/2000/svg">
<path d="M9.64613 68.0005H17.0381V0.800484H11.8541C10.1261 5.50449 7.63013 9.44049 0.334125 9.72848V15.8725C3.88613 15.6805 7.15013 14.5285 9.64613 12.9925V68.0005ZM27.7796 51.6805C27.7796 61.9525 32.8676 68.6725 43.1396 68.6725C53.5076 68.6725 58.5956 61.9525 58.5956 51.6805V17.0245C58.5956 6.75249 53.5076 0.128487 43.1396 0.128487C32.8676 0.128487 27.7796 6.75249 27.7796 17.0245V51.6805ZM35.1716 16.6405C35.1716 10.4965 37.7636 6.84849 43.1396 6.84849C48.6116 6.84849 51.1076 10.4965 51.1076 16.6405V52.1605C51.1076 58.2085 48.6116 61.8565 43.1396 61.8565C37.7636 61.8565 35.1716 58.2085 35.1716 52.1605V16.6405ZM71.4761 52.5445C76.3721 52.5445 79.7801 48.9925 79.7801 43.2805C79.7801 37.5685 76.3721 34.0165 71.4761 34.0165C66.5801 34.0165 63.1241 37.6165 63.1241 43.2805C63.1241 48.9445 66.5801 52.5445 71.4761 52.5445ZM68.5481 68.0005H74.2601L97.2041 34.4005H91.4921L68.5481 68.0005ZM71.4761 48.6085C69.4121 48.6085 67.9721 46.8325 67.9721 43.2805C67.9721 39.7285 69.4121 37.9525 71.4761 37.9525C73.5881 37.9525 74.9801 39.6805 74.9801 43.2805C74.9801 46.8805 73.5881 48.6085 71.4761 48.6085ZM94.2761 68.3845C99.1721 68.3845 102.628 64.7845 102.628 59.1205C102.628 53.4565 99.1721 49.8565 94.2761 49.8565C89.4281 49.8565 85.9721 53.4565 85.9721 59.1205C85.9721 64.7845 89.4281 68.3845 94.2761 68.3845ZM94.2761 64.4485C92.2121 64.4485 90.7721 62.7205 90.7721 59.1205C90.7721 55.5205 92.2121 53.7925 94.2761 53.7925C96.3881 53.7925 97.7801 55.5685 97.7801 59.1205C97.7801 62.6725 96.3881 64.4485 94.2761 64.4485Z" fill="#E7742E"/>
</svg>
