<svg width="132" height="96" viewBox="0 0 132 96" fill="none" xmlns="http://www.w3.org/2000/svg">
<g clipPath="url(#clip0_646_372)">
<path d="M52.3 32.661C51.9911 32.3378 51.9176 31.8529 52.0941 31.4416L54.6831 25.5354C53.0208 22.9643 52.1382 19.9966 52.1382 16.9113C52.1382 8.14025 59.2873 1 68.0691 1C76.851 1 84 8.14025 84 16.9113C84 25.6823 76.851 32.8226 68.0691 32.8226C65.2154 32.8226 62.4352 32.0586 59.9934 30.6188L53.5063 32.9401C53.3886 32.9842 53.2562 32.9989 53.1238 32.9989C52.8149 33.0136 52.5207 32.8814 52.3 32.661ZM54.3889 16.926C54.3889 19.7615 55.2567 22.4795 56.8896 24.7861C57.1396 25.1387 57.1543 25.5942 56.9631 25.9615L55.1979 29.9577L59.655 28.3563C59.9934 28.2093 60.3905 28.224 60.7141 28.4297C62.9059 29.8255 65.4507 30.5747 68.0691 30.5747C75.6153 30.5747 81.7494 24.4482 81.7494 16.9113C81.7494 9.37436 75.6153 3.24786 68.0691 3.24786C60.5229 3.26255 54.3889 9.38906 54.3889 16.926Z" fill="#E7742E"/>
<path d="M34.7273 38C39.1456 38 42.7273 34.4183 42.7273 30C42.7273 25.5817 39.1456 22 34.7273 22C30.309 22 26.7273 25.5817 26.7273 30C26.7273 34.4183 30.309 38 34.7273 38Z" fill="#E7742E"/>
<path d="M46.2857 40H22.7143C21.464 40 20.2649 40.4917 19.3808 41.3668C18.4967 42.242 18 43.429 18 44.6667V68H25.0714V49.3333H26.25V96H33.9107V69.1667H35.0893V96H42.75V49.3333H43.9286V68H51V44.6667C51 43.429 50.5033 42.242 49.6192 41.3668C48.7351 40.4917 47.536 40 46.2857 40Z" fill="#E7742E"/>
<path d="M97.7273 38C102.146 38 105.727 34.4183 105.727 30C105.727 25.5817 102.146 22 97.7273 22C93.309 22 89.7273 25.5817 89.7273 30C89.7273 34.4183 93.309 38 97.7273 38Z" fill="#E7742E"/>
<path d="M109.286 40H85.7143C84.464 40 83.2649 40.4917 82.3808 41.3668C81.4967 42.242 81 43.429 81 44.6667V68H88.0714V49.3333H89.25V96H96.9107V69.1667H98.0893V96H105.75V49.3333H106.929V68H114V44.6667C114 43.429 113.503 42.242 112.619 41.3668C111.735 40.4917 110.536 40 109.286 40Z" fill="#E7742E"/>
</g>
<defs>
<clipPath id="clip0_646_372">
<rect width="132" height="96" fill="white"/>
</clipPath>
</defs>
</svg>
