<svg width="160" height="95" viewBox="0 0 160 95" fill="none" xmlns="http://www.w3.org/2000/svg">
<path d="M48.0017 19C47.0543 18.9979 46.131 19.292 45.3666 19.8392C44.6021 20.3865 44.0365 21.1583 43.7523 22.0421C43.4681 22.9258 43.4802 23.8753 43.7867 24.7519C44.0933 25.6285 44.6783 26.3864 45.4564 26.9149V30.3994C43.1657 30.723 41.0276 31.4448 39.0932 32.5399L36.2679 28.5825C36.7515 27.2882 36.6243 25.7948 35.7589 24.6002C34.868 23.3806 33.4936 22.7334 32.0936 22.7334C31.2028 22.7334 30.3119 22.9823 29.5484 23.5299C27.5376 24.8988 27.0285 27.6118 28.4539 29.5781C29.3193 30.7976 30.6937 31.4448 32.0936 31.4448L35.0971 35.6262C34.0026 36.6965 33.1372 37.8912 32.3991 39.2103C31.89 39.0112 31.3555 38.9116 30.821 38.9116C29.6756 38.9116 28.5302 39.3347 27.6394 40.1561C25.934 41.8984 25.934 44.6362 27.6394 46.3785C28.3775 47.0505 29.2684 47.4238 30.1847 47.623C30.1847 48.967 30.3628 50.2612 30.6428 51.5057L27.3085 52.3769C26.5194 51.7297 25.5013 51.3564 24.4578 51.3564C24.076 51.3564 23.6687 51.3564 23.2869 51.5057C22.1463 51.8097 21.1757 52.5441 20.5887 53.5476C20.0016 54.551 19.846 55.7414 20.1562 56.857C20.6907 58.8232 22.5488 60.0677 24.4578 60.0677C24.8396 60.0677 25.2213 60.0677 25.6286 59.9184C27.0794 59.5201 28.1739 58.4748 28.632 57.1805L32.4754 56.1601C33.6208 58.1263 35.148 59.8686 36.9297 61.3122L34.1299 66.2901C32.73 66.4892 31.4573 67.2608 30.7192 68.5799C30.4418 69.0833 30.2684 69.6351 30.2091 70.204C30.1498 70.7729 30.2056 71.3476 30.3734 71.8953C30.5412 72.4431 30.8177 72.9531 31.1871 73.3964C31.5565 73.8397 32.0116 74.2075 32.5263 74.4787C33.0411 74.75 33.6054 74.9195 34.1872 74.9775C34.7689 75.0355 35.3566 74.9809 35.9168 74.8168C36.4769 74.6527 36.9986 74.3824 37.4519 74.0211C37.9052 73.6599 38.2813 73.2149 38.5587 72.7116C39.2714 71.4173 39.2459 69.924 38.6096 68.7044L41.3331 63.8011C43.3948 64.5976 45.6346 65.0456 48.0017 65.0456H48.4599C48.129 65.6927 48.0017 66.4394 48.0017 67.2359C48.2054 69.5257 50.1398 71.268 52.456 71.268H52.7869C55.2558 71.0689 57.0884 68.9782 56.9103 66.5888C56.8085 65.3443 56.1721 64.2491 55.2558 63.5273C56.4521 63.0047 57.5975 62.3327 58.6665 61.5611L64.6225 67.3852C64.368 68.779 64.7752 70.1977 65.8188 71.268C66.7097 72.0893 67.855 72.5125 69.0004 72.5125C70.1458 72.5125 71.2912 72.0893 72.182 71.268C73.8874 69.5257 73.8874 66.7879 72.182 65.0456C71.2912 64.2243 70.1458 63.8011 69.0004 63.8011C68.7459 63.8011 68.4914 63.8011 68.2114 63.8758L62.2554 58.0517C63.5026 56.4338 64.4698 54.592 65.0807 52.6009H67.9059C68.4464 53.3618 69.2214 53.9338 70.1179 54.2336C71.0143 54.5334 71.9853 54.5452 72.8891 54.2673C73.7928 53.9893 74.5821 53.4363 75.1418 52.6887C75.7014 51.9412 76.0021 51.0383 76 50.1119C76.0021 49.1855 75.7014 48.2826 75.1418 47.5351C74.5821 46.7875 73.7928 46.2345 72.8891 45.9565C71.9853 45.6786 71.0143 45.6904 70.1179 45.9902C69.2214 46.29 68.4464 46.8621 67.9059 47.623H65.8188C65.8188 43.7153 64.5462 40.1561 62.2554 37.1942L65.6661 33.8591C65.9461 33.9337 66.2006 33.9337 66.4551 33.9337C67.6005 33.9337 68.7459 33.5106 69.6367 32.6892C71.3421 30.9719 71.3421 28.2091 69.6367 26.4669C68.7459 25.6455 67.6005 25.2224 66.4551 25.2224C65.3097 25.2224 64.1644 25.6455 63.2735 26.4669C62.2299 27.5371 61.8227 28.9558 62.0772 30.3496L58.6665 33.6848C56.3249 31.9674 53.5759 30.8225 50.547 30.3994V26.9149C51.3252 26.3864 51.9102 25.6285 52.2167 24.7519C52.5233 23.8753 52.5354 22.9258 52.2512 22.0421C51.967 21.1583 51.4014 20.3865 50.6369 19.8392C49.8724 19.292 48.9492 18.9979 48.0017 19ZM48.0017 60.0677C40.9767 60.0677 35.2753 54.4925 35.2753 47.623C35.2753 40.7534 40.9767 35.1782 48.0017 35.1782C55.0268 35.1782 60.7282 40.7534 60.7282 47.623C60.7282 54.4925 55.0268 60.0677 48.0017 60.0677ZM44.1838 40.1561C42.0712 40.1561 40.3659 41.8237 40.3659 43.8895C40.3659 45.9554 42.0712 47.623 44.1838 47.623C46.2964 47.623 48.0017 45.9554 48.0017 43.8895C48.0017 41.8237 46.2964 40.1561 44.1838 40.1561ZM53.0923 50.1119C51.6924 50.1119 50.547 51.2319 50.547 52.6009C50.547 53.9698 51.6924 55.0898 53.0923 55.0898C54.4922 55.0898 55.6376 53.9698 55.6376 52.6009C55.6376 51.2319 54.4922 50.1119 53.0923 50.1119Z" fill="#E7742E"/>
<path d="M137.63 58.2C136.318 58.2 135.229 59.288 135.229 60.6H130.299C129.837 56.3191 128.147 52.263 125.432 48.92L128.922 45.432L128.954 45.464C129.882 46.392 131.419 46.392 132.348 45.464C133.276 44.536 133.276 43 132.348 42.072L128.954 38.68C128.502 38.2337 127.892 37.9834 127.257 37.9834C126.622 37.9834 126.012 38.2337 125.56 38.68C124.632 39.608 124.632 41.112 125.528 42.04L122.039 45.528C118.696 42.8374 114.652 41.1606 110.385 40.696V35.8H110.417C111.729 35.8 112.818 34.712 112.818 33.4C112.818 32.088 111.729 31 110.417 31H105.614C104.302 31 103.213 32.088 103.213 33.4C103.213 34.712 104.27 35.768 105.582 35.8V40.76C101.196 41.208 97.1944 42.968 93.9288 45.592L90.4391 42.104L90.4711 42.072C91.3995 41.144 91.3995 39.608 90.4711 38.68C90.0192 38.2337 89.4095 37.9834 88.7742 37.9834C88.139 37.9834 87.5293 38.2337 87.0774 38.68L83.6838 42.072C82.7553 43 82.7553 44.536 83.6838 45.464C84.6122 46.392 86.1169 46.392 87.0454 45.496L90.5351 48.984C87.8407 52.3083 86.1721 56.3443 85.7328 60.6H80.8023C80.8023 59.288 79.7138 58.2 78.4012 58.2C77.0885 58.2 76 59.288 76 60.6V65.4C76 66.712 77.0885 67.8 78.4012 67.8C79.7138 67.8 80.8023 66.712 80.8023 65.4H85.7328C86.213 69.784 87.9418 73.752 90.5351 77.016L87.0454 80.504C86.8227 80.2853 86.559 80.1126 86.2694 79.9958C85.9799 79.8791 85.6702 79.8205 85.3579 79.8235C85.0457 79.8264 84.7372 79.8909 84.4499 80.0132C84.1626 80.1354 83.9023 80.3131 83.6838 80.536C82.7553 81.464 82.7553 83 83.6838 83.928L87.0774 87.32C88.0059 88.248 89.5426 88.248 90.4711 87.32C91.3995 86.392 91.3995 84.856 90.4711 83.928L90.4391 83.896L93.9288 80.408C97.1944 83.032 101.164 84.76 105.55 85.24V90.2C104.238 90.232 103.181 91.288 103.181 92.6C103.181 93.912 104.27 95 105.582 95H110.385C111.697 95 112.786 93.912 112.786 92.6C112.786 91.288 111.697 90.2 110.385 90.2H110.353V85.272C114.739 84.824 118.741 83.064 122.007 80.44L125.496 83.928C124.568 84.856 124.6 86.36 125.528 87.288C126.457 88.216 127.993 88.216 128.922 87.288L132.316 83.896C133.244 82.968 133.244 81.432 132.316 80.504C131.864 80.0577 131.254 79.8074 130.619 79.8074C129.983 79.8074 129.374 80.0577 128.922 80.504L128.89 80.536L125.4 77.048C128.108 73.7006 129.797 69.6467 130.267 65.368H135.197C135.197 66.68 136.285 67.768 137.598 67.768C138.911 67.768 139.999 66.68 139.999 65.368V60.568C140.031 59.288 138.943 58.2 137.63 58.2ZM113.618 50.2C115.379 50.2 116.82 51.64 116.82 53.4C116.82 55.16 115.379 56.6 113.618 56.6C111.858 56.6 110.417 55.16 110.417 53.4C110.417 51.64 111.858 50.2 113.618 50.2ZM108.016 66.2C106.255 66.2 104.814 64.76 104.814 63C104.814 61.24 106.255 59.8 108.016 59.8C109.777 59.8 111.217 61.24 111.217 63C111.217 64.76 109.777 66.2 108.016 66.2ZM102.413 50.2C104.174 50.2 105.614 51.64 105.614 53.4C105.614 55.16 104.174 56.6 102.413 56.6C100.652 56.6 99.2114 55.16 99.2114 53.4C99.2114 51.64 100.652 50.2 102.413 50.2ZM96.8102 66.2C95.0493 66.2 93.6086 64.76 93.6086 63C93.6086 61.24 95.0493 59.8 96.8102 59.8C98.571 59.8 100.012 61.24 100.012 63C100.012 64.76 98.571 66.2 96.8102 66.2ZM102.413 75.8C100.652 75.8 99.2114 74.36 99.2114 72.6C99.2114 70.84 100.652 69.4 102.413 69.4C104.174 69.4 105.614 70.84 105.614 72.6C105.614 74.36 104.174 75.8 102.413 75.8ZM113.618 75.8C111.858 75.8 110.417 74.36 110.417 72.6C110.417 70.84 111.858 69.4 113.618 69.4C115.379 69.4 116.82 70.84 116.82 72.6C116.82 74.36 115.379 75.8 113.618 75.8ZM116.02 63C116.02 61.24 117.46 59.8 119.221 59.8C120.982 59.8 122.423 61.24 122.423 63C122.423 64.76 120.982 66.2 119.221 66.2C117.46 66.2 116.02 64.76 116.02 63Z" fill="#E7742E"/>
</svg>
