<svg width="132" height="96" viewBox="0 0 132 96" fill="none" xmlns="http://www.w3.org/2000/svg">
<path d="M107.794 50.3802H97.6221V43.1253C97.6221 39.2298 94.441 36.0491 90.5051 36.0491H32.8681C32.1313 36.0491 31.5202 36.6567 31.5202 37.3893C31.5202 38.122 32.1313 38.7295 32.8681 38.7295H90.4871C92.9134 38.7295 94.9083 40.6951 94.9083 43.1253V50.3802H89.0493C82.7411 50.3802 77.619 55.4729 77.619 61.7449C77.619 68.017 82.7411 73.1097 89.0493 73.1097H103.553V80.3645C103.553 87.53 97.694 93.3554 90.4871 93.3554H25.6613C24.0258 93.3554 22.6958 92.0331 22.6958 90.407V87.4586H90.5051C94.423 87.4586 97.6221 84.2957 97.6221 80.3824V77.5233C97.6221 76.7907 97.011 76.1832 96.2742 76.1832C95.5373 76.1832 94.9262 76.7907 94.9262 77.5233V80.3824C94.9262 82.7947 92.9493 84.7782 90.5051 84.7782H22.6958V38.7295H27.117C27.8539 38.7295 28.4649 38.122 28.4649 37.3893C28.4649 36.6567 27.8539 36.0491 27.117 36.0491H22.6958V33.1007C22.6958 31.4746 24.0258 30.1523 25.6613 30.1523H90.4871C97.694 30.1523 103.553 35.9777 103.553 43.1432V46.0022C103.553 46.7349 104.164 47.3424 104.901 47.3424C105.638 47.3424 106.249 46.7349 106.249 46.0022V43.1432C106.249 38.2828 104.002 33.9227 100.48 31.0458V17.3402C100.48 16.6075 99.8686 16 99.1318 16H27.117C26.3801 16 25.7691 16.6075 25.7691 17.3402V27.4541H25.6792C22.5521 27.4541 20 29.9736 20 33.0829V90.3712C20 93.4805 22.5521 96 25.6613 96H90.4871C99.1677 96 106.249 88.9774 106.249 80.3288V73.0739H107.776C110.113 73.0739 112 71.1798 112 68.8747V54.5794C112.018 52.2564 110.113 50.3802 107.794 50.3802ZM97.8018 18.6804V29.241C96.8313 28.7407 95.8069 28.3297 94.7286 28.0259V23.0583C94.7286 22.3257 94.1175 21.7181 93.3806 21.7181H28.4649V18.6804H97.8018ZM28.4649 24.3985H92.0327V27.5256C91.5295 27.472 91.0083 27.4541 90.5051 27.4541H28.4649V24.3985ZM109.322 68.8926C109.322 69.7324 108.639 70.4114 107.794 70.4114H89.0673C84.2507 70.4114 80.3328 66.516 80.3328 61.727C80.3328 56.9381 84.2507 53.0427 89.0673 53.0427H107.794C108.639 53.0427 109.322 53.7217 109.322 54.5615V68.8926Z" fill="#E7742E"/>
<path d="M89.0673 56.0984C85.9402 56.0984 83.4061 58.6358 83.4061 61.7272C83.4061 64.8185 85.9581 67.3559 89.0673 67.3559C92.1765 67.3559 94.7286 64.8185 94.7286 61.7272C94.7286 58.6358 92.1945 56.0984 89.0673 56.0984ZM89.0673 64.6934C87.4318 64.6934 86.1019 63.3711 86.1019 61.745C86.1019 60.1189 87.4318 58.7966 89.0673 58.7966C90.7028 58.7966 92.0327 60.1189 92.0327 61.745C92.0327 63.3711 90.7028 64.6934 89.0673 64.6934Z" fill="#E7742E"/>
</svg>
