<svg width="160" height="95" viewBox="0 0 160 95" fill="none" xmlns="http://www.w3.org/2000/svg">
<path fill-rule="evenodd" clip-rule="evenodd" d="M105.269 47.6343C104.801 47.2282 103.662 47 103 47C102.338 47 101.199 47.2282 100.731 47.6343C100.263 48.0404 100 48.5912 100 49.1655V65H28.48C27 65 25.8122 65.209 25 66C24.1878 66.791 24 68 24 69.5V90.6365C24 91.7937 24.1598 93.1817 25 94C25.8402 94.8183 27.2918 95 28.48 95H131.52C132.708 95 134.16 94.8183 135 94C135.84 93.1817 136 91.7937 136 90.6365V70C136 67.5 135.84 66.8183 135 66C134.16 65.1817 132.708 65 131.52 65H106V49.1655C106 48.5912 105.737 48.0404 105.269 47.6343ZM42.0558 77.4135C41.4257 76.7998 40.5711 76.455 39.6799 76.455C38.7888 76.455 37.9342 76.7998 37.3041 77.4135C36.6739 78.0273 36.3199 78.8597 36.3199 79.7276C36.3199 80.5956 36.6739 81.428 37.3041 82.0417C37.9342 82.6555 38.7888 83.0003 39.6799 83.0003C40.5711 83.0003 41.4257 82.6555 42.0558 82.0417C42.6859 81.428 43.0399 80.5956 43.0399 79.7276C43.0399 78.8597 42.6859 78.0273 42.0558 77.4135ZM119.2 77.5459C119.794 77.5459 120.364 77.7758 120.784 78.1849C121.204 78.5941 121.44 79.1491 121.44 79.7277C121.44 80.3063 121.204 80.8613 120.784 81.2705C120.364 81.6796 119.794 81.9095 119.2 81.9095C118.606 81.9095 118.036 81.6796 117.616 81.2705C117.196 80.8613 116.96 80.3063 116.96 79.7277C116.96 79.1491 117.196 78.5941 117.616 78.1849C118.036 77.7758 118.606 77.5459 119.2 77.5459ZM108 77.5459C108.594 77.5459 109.164 77.7758 109.584 78.1849C110.004 78.5941 110.24 79.1491 110.24 79.7277C110.24 80.3063 110.004 80.8613 109.584 81.2705C109.164 81.6796 108.594 81.9095 108 81.9095C107.406 81.9095 106.836 81.6796 106.416 81.2705C105.996 80.8613 105.76 80.3063 105.76 79.7277C105.76 79.1491 105.996 78.5941 106.416 78.1849C106.836 77.7758 107.406 77.5459 108 77.5459ZM96.8 77.5459C97.3941 77.5459 97.9638 77.7758 98.3839 78.1849C98.804 78.5941 99.04 79.1491 99.04 79.7277C99.04 80.3063 98.804 80.8613 98.3839 81.2705C97.9638 81.6796 97.3941 81.9095 96.8 81.9095C96.2059 81.9095 95.6361 81.6796 95.2161 81.2705C94.796 80.8613 94.56 80.3063 94.56 79.7277C94.56 79.1491 94.796 78.5941 95.2161 78.1849C95.6361 77.7758 96.2059 77.5459 96.8 77.5459ZM85.6 77.5459C86.1941 77.5459 86.7638 77.7758 87.1839 78.1849C87.604 78.5941 87.84 79.1491 87.84 79.7277C87.84 80.3063 87.604 80.8613 87.1839 81.2705C86.7638 81.6796 86.1941 81.9095 85.6 81.9095C85.0059 81.9095 84.4361 81.6796 84.0161 81.2705C83.596 80.8613 83.36 80.3063 83.36 79.7277C83.36 79.1491 83.596 78.5941 84.0161 78.1849C84.4361 77.7758 85.0059 77.5459 85.6 77.5459ZM74.4 77.5459C74.9941 77.5459 75.5638 77.7758 75.9839 78.1849C76.404 78.5941 76.64 79.1491 76.64 79.7277C76.64 80.3063 76.404 80.8613 75.9839 81.2705C75.5638 81.6796 74.9941 81.9095 74.4 81.9095C73.8059 81.9095 73.2361 81.6796 72.8161 81.2705C72.396 80.8613 72.16 80.3063 72.16 79.7277C72.16 79.1491 72.396 78.5941 72.8161 78.1849C73.2361 77.7758 73.8059 77.5459 74.4 77.5459Z" fill="#E7742E"/>
<path d="M98.3884 45C97.848 45 97.3354 44.6585 97.1111 44.0874C96.811 43.3265 97.14 42.4468 97.845 42.1233C101.111 40.6256 104.887 40.6256 108.155 42.1233C108.86 42.4468 109.188 43.3265 108.889 44.0874C108.589 44.8482 107.774 45.2027 107.071 44.8792C105.793 44.2952 104.405 43.9931 103 43.9935C101.595 43.9938 100.207 44.2966 98.9299 44.8812C98.7534 44.9611 98.5699 45 98.3884 45Z" fill="#E7742E"/>
<path d="M76.6723 25C76.3343 25.0013 76.004 24.9025 75.725 24.7167C75.4461 24.5309 75.2318 24.2669 75.1107 23.9598C74.9895 23.6527 74.9672 23.317 75.0467 22.9973C75.1262 22.6775 75.3038 22.3889 75.5558 22.1697C83.092 15.5578 92.8803 12.9927 103.026 13C113.171 12.9939 122.958 15.5576 130.496 22.1664C130.805 22.4595 130.985 22.8575 130.999 23.2771C131.013 23.6966 130.86 24.1052 130.572 24.4174C130.283 24.7295 129.882 24.921 129.452 24.9517C129.022 24.9824 128.596 24.8499 128.264 24.5821C121.338 18.5093 112.349 15.9941 103.026 16C93.7045 15.9933 84.7068 18.5091 77.7821 24.5832C77.4793 24.8531 77.083 25.002 76.6723 25Z" fill="#E7742E"/>
<path d="M124.322 30C123.941 30 123.563 29.8846 123.248 29.6478C117.586 25.3758 110.392 22.9594 102.999 22.9594C95.604 22.9594 88.4131 25.3738 82.7497 29.6458C82.4074 29.9028 81.9687 30.0269 81.5276 29.9915C81.0865 29.956 80.6781 29.7638 80.39 29.4561C80.2491 29.3045 80.1426 29.1287 80.0768 28.9389C80.011 28.7492 79.9871 28.5494 80.0066 28.3512C80.0261 28.1529 80.0886 27.9602 80.1903 27.7843C80.2921 27.6084 80.4312 27.4528 80.5994 27.3266C86.8649 22.6021 94.82 20 102.999 20C111.18 20 119.134 22.6031 125.401 27.3307C126.109 27.8665 126.203 28.8189 125.61 29.4591C125.451 29.6292 125.253 29.7657 125.031 29.8591C124.808 29.9525 124.566 30.0005 124.322 30Z" fill="#E7742E"/>
<path d="M118.406 35C118.074 35 117.736 34.9001 117.449 34.6912C113.261 31.6611 108.265 29.9961 103 29.9961C97.7386 29.9961 92.745 31.6591 88.5545 34.6882C88.3879 34.8087 88.1972 34.8967 87.9939 34.9469C87.7906 34.9972 87.5786 35.0086 87.3705 34.9807C87.1624 34.9528 86.9623 34.886 86.782 34.7843C86.6017 34.6825 86.4449 34.548 86.3207 34.3884C86.0664 34.0632 85.9569 33.6576 86.0154 33.2577C86.0739 32.8578 86.2958 32.4951 86.634 32.2467C91.3811 28.8149 95.9167 27 102.999 27C110.083 27 114.62 28.8149 119.366 32.2497C119.704 32.4978 119.926 32.8603 119.985 33.2602C120.043 33.66 119.933 34.0655 119.679 34.3904C119.368 34.7911 118.892 35 118.406 35Z" fill="#E7742E"/>
<path d="M93.4577 40C92.9746 40 92.5006 39.7461 92.2256 39.2822C91.7956 38.5625 91.9986 37.6108 92.6786 37.1558C95.7647 35.0931 99.3329 34.002 103.001 34C106.667 34 110.235 35.0911 113.321 37.1548C114.001 37.6098 114.204 38.5625 113.774 39.2812C113.345 40.001 112.446 40.216 111.765 39.7611C109.145 38.009 106.114 36.9587 103 36.9587C99.8839 36.9587 96.8528 38.01 94.2307 39.7621C94.0029 39.917 93.7335 40 93.4577 40Z" fill="#E7742E"/>
</svg>
