<svg width="132" height="96" viewBox="0 0 132 96" fill="none" xmlns="http://www.w3.org/2000/svg">
<path d="M58.8571 85.5432V54.5456L23.9286 54.6172V81.1764L58.8571 85.5432ZM62.6429 52.6843V87.6193C62.6429 87.6909 62.6429 87.7625 62.6429 87.834C62.5 88.8363 61.5714 89.5522 60.5714 89.4806L21.8571 84.6842C20.9286 84.6126 20.1429 83.8251 20.1429 82.8229V52.7559C20.1429 51.7537 21 50.8946 22 50.8946L60.5 50.823C60.5714 50.823 60.6429 50.823 60.6429 50.823C61.7857 50.7514 62.6429 51.6105 62.6429 52.6843ZM58.8571 42.662V12.3803L23.7143 16.8187V42.662H58.8571ZM62.6429 10.2326V44.5233C62.6429 45.5255 61.7857 46.3846 60.7857 46.3846H21.8571C20.7857 46.3846 20 45.5255 20 44.5233V15.1722C20 14.2416 20.7143 13.4541 21.6429 13.3109L60.3571 8.44292C60.5 8.44292 60.6429 8.37134 60.7857 8.37134C61.7857 8.37134 62.6429 9.23039 62.6429 10.2326ZM70.7857 42.662H108.143V6.00893L70.7857 10.9485V42.662ZM110.071 46.3846H68.9286C67.8571 46.3846 67.0714 45.5255 67.0714 44.5233V9.30198C67.0714 8.37134 67.7857 7.58386 68.7143 7.44069L109.714 2.07159C109.857 2.07159 110 2 110.143 2C111.214 2 112 2.85906 112 3.86129V44.5233C111.929 45.5971 111.071 46.3846 110.071 46.3846ZM108.143 91.9146V54.6172L70.7857 54.5456V86.975L108.143 91.9146ZM111.929 52.7559V94.1338C111.929 94.2054 111.929 94.277 111.929 94.3485C111.786 95.3508 110.857 96.0667 109.857 95.9951L68.8572 90.5544C67.8571 90.4828 67.0714 89.6953 67.0714 88.6931V52.7559C67.0714 51.6821 67.9286 50.8946 68.9286 50.8946L109.929 50.9662C110 50.9662 110.071 50.9662 110.071 50.9662C111.071 50.8946 111.929 51.6821 111.929 52.7559Z" fill="#E7742E"/>
</svg>
